<?xml version="1.0" encoding="UTF-8"?>
<svg version="1.1" xmlns="http://www.w3.org/2000/svg" width="361" height="292">
<path d="M0 0 C119.13 0 238.26 0 361 0 C361 96.36 361 192.72 361 292 C241.87 292 122.74 292 0 292 C0 195.64 0 99.28 0 0 Z " fill="#161704" transform="translate(0,0)"/>
<path d="M0 0 C0.88001993 0.00201133 1.76003986 0.00402266 2.66672707 0.00609493 C3.67859077 -0.00366871 4.69045448 -0.01343235 5.73298073 -0.02349186 C7.39735176 -0.00124043 7.39735176 -0.00124043 9.09534645 0.02146053 C10.26483833 0.01751781 11.43433022 0.0135751 12.63926125 0.0095129 C15.85099797 0.0039419 19.06167347 0.02074624 22.27327108 0.04799294 C25.64376512 0.07184598 29.01424228 0.06887833 32.38480568 0.06929684 C38.05604828 0.07392985 43.72695602 0.09758456 49.39808083 0.13376522 C55.92525993 0.17530065 62.45213635 0.19306824 68.97944009 0.19638497 C75.95378513 0.2000095 82.92802331 0.2189396 89.90232325 0.24350524 C91.89659491 0.24968956 93.89087449 0.25312396 95.88515282 0.25653934 C99.63503696 0.26566603 103.38461052 0.28813517 107.13440895 0.31442928 C108.76841652 0.31542629 108.76841652 0.31542629 110.43543434 0.31644344 C130.65135689 0.5103323 130.65135689 0.5103323 133.76185036 3.62082577 C136.33576677 4.15258975 138.92044553 4.58513376 141.51185036 5.02316952 C142.25435036 5.22039608 142.99685036 5.41762264 143.76185036 5.62082577 C144.09185036 6.28082577 144.42185036 6.94082577 144.76185036 7.62082577 C147.07655948 8.34953049 149.41244506 9.01322095 151.76185036 9.62082577 C152.75185036 9.95082577 153.74185036 10.28082577 154.76185036 10.62082577 C154.76185036 11.28082577 154.76185036 11.94082577 154.76185036 12.62082577 C155.53528786 12.75231014 155.53528786 12.75231014 156.32435036 12.88645077 C159.72889065 13.91217765 162.68865716 15.62206311 165.76185036 17.37082577 C166.37802223 17.70598202 166.99419411 18.04113827 167.62903786 18.38645077 C171.60211608 20.63729336 174.0718992 22.96890532 176.76185036 26.62082577 C177.83733055 27.55090304 178.94044018 28.45045101 180.07435036 29.30832577 C186.91211957 35.03092232 193.97485311 44.62816168 195.00013161 53.73801327 C195.01185036 55.68332577 195.01185036 55.68332577 194.76185036 58.62082577 C195.42185036 58.62082577 196.08185036 58.62082577 196.76185036 58.62082577 C197.24347975 84.68232736 197.24347975 84.68232736 190.76185036 94.62082577 C190.10185036 94.62082577 189.44185036 94.62082577 188.76185036 94.62082577 C188.76185036 95.94082577 188.76185036 97.26082577 188.76185036 98.62082577 C188.10185036 98.62082577 187.44185036 98.62082577 186.76185036 98.62082577 C186.76185036 99.28082577 186.76185036 99.94082577 186.76185036 100.62082577 C186.10185036 100.62082577 185.44185036 100.62082577 184.76185036 100.62082577 C184.67935036 101.17770077 184.59685036 101.73457577 184.51185036 102.30832577 C183.52289494 105.35760496 181.9142757 107.2727254 179.76185036 109.62082577 C179.10185036 109.62082577 178.44185036 109.62082577 177.76185036 109.62082577 C177.76185036 110.28082577 177.76185036 110.94082577 177.76185036 111.62082577 C177.10185036 111.62082577 176.44185036 111.62082577 175.76185036 111.62082577 C175.76185036 112.28082577 175.76185036 112.94082577 175.76185036 113.62082577 C175.10185036 113.62082577 174.44185036 113.62082577 173.76185036 113.62082577 C173.76185036 114.28082577 173.76185036 114.94082577 173.76185036 115.62082577 C173.10185036 115.62082577 172.44185036 115.62082577 171.76185036 115.62082577 C171.76185036 116.28082577 171.76185036 116.94082577 171.76185036 117.62082577 C168.85636154 119.66252062 167.3604299 120.62082577 163.76185036 120.62082577 C163.76185036 121.28082577 163.76185036 121.94082577 163.76185036 122.62082577 C162.83372536 123.05395077 161.90560036 123.48707577 160.94935036 123.93332577 C157.87029066 125.32847882 157.87029066 125.32847882 156.43372536 127.10129452 C154.11017472 129.21311974 151.82876491 129.74681426 148.82435036 130.62082577 C147.67321754 130.95727108 146.52208473 131.29371639 145.33606911 131.64035702 C140.9813924 132.83491861 136.61362991 133.95397786 132.22278786 135.00754452 C129.65145396 135.61460158 129.65145396 135.61460158 126.76185036 136.62082577 C124.62390511 136.70420617 122.48343026 136.72816323 120.34388161 136.71848202 C118.64969093 136.71473568 118.64969093 136.71473568 116.92127419 136.71091366 C115.48678932 136.70180965 114.05230446 136.69270565 112.57435036 136.68332577 C105.73716286 136.65238827 105.73716286 136.65238827 98.76185036 136.62082577 C98.76185036 124.08082577 98.76185036 111.54082577 98.76185036 98.62082577 C99.42185036 98.62082577 100.08185036 98.62082577 100.76185036 98.62082577 C100.76185036 97.96082577 100.76185036 97.30082577 100.76185036 96.62082577 C101.77505348 96.51125546 102.78825661 96.40168514 103.83216286 96.28879452 C105.18379497 96.12922684 106.53535379 95.96903744 107.88685036 95.80832577 C108.55200661 95.73807186 109.21716286 95.66781796 109.90247536 95.59543514 C114.42391076 95.04133767 117.79309617 93.81226829 121.76185036 91.62082577 C122.75185036 91.29082577 123.74185036 90.96082577 124.76185036 90.62082577 C124.76185036 89.96082577 124.76185036 89.30082577 124.76185036 88.62082577 C125.54560036 88.53832577 126.32935036 88.45582577 127.13685036 88.37082577 C129.85636548 87.89458252 129.85636548 87.89458252 131.01185036 85.80832577 C131.71504586 83.7573389 132.30761292 81.74060047 132.76185036 79.62082577 C133.42185036 79.62082577 134.08185036 79.62082577 134.76185036 79.62082577 C135.19787488 65.7891271 135.19787488 65.7891271 128.68372536 54.12473202 C126.18102602 52.16631892 123.8921485 51.15526691 120.76185036 50.62082577 C120.76185036 49.96082577 120.76185036 49.30082577 120.76185036 48.62082577 C119.40837347 48.16045948 118.05402335 47.7026604 116.69935036 47.24582577 C115.56819801 46.86297421 115.56819801 46.86297421 114.41419411 46.47238827 C113.53892067 46.19137264 112.66364723 45.91035702 111.76185036 45.62082577 C110.78731911 45.28180233 109.81278786 44.94277889 108.80872536 44.59348202 C103.73264269 43.15868666 98.60000075 43.26521151 93.35950661 43.20676327 C92.28180504 43.18739712 91.20410347 43.16803097 90.09374428 43.14807796 C86.67069206 43.08856822 83.24760569 43.04201121 79.82435036 42.99582577 C77.49556011 42.95761968 75.16678359 42.91856644 72.83802223 42.87863827 C67.14608736 42.7828903 61.45406895 42.69775994 55.76185036 42.62082577 C56.38122544 44.56013125 57.00755723 46.4972159 57.63685036 48.43332577 C57.98489723 49.51227108 58.33294411 50.59121639 58.69153786 51.70285702 C59.68144689 54.75398379 59.68144689 54.75398379 61.76185036 57.62082577 C64.61910411 67.42720285 65.83742295 80.09757114 61.76185036 89.62082577 C61.23978004 90.12227108 60.71770973 90.62371639 60.17981911 91.14035702 C58.07163837 93.34146032 58.24987061 95.32448149 58.07435036 98.30832577 C58.00860817 99.30219296 57.94286598 100.29606014 57.87513161 101.32004452 C57.83774879 102.07930233 57.80036598 102.83856014 57.76185036 103.62082577 C58.42185036 103.62082577 59.08185036 103.62082577 59.76185036 103.62082577 C59.76185036 104.28082577 59.76185036 104.94082577 59.76185036 105.62082577 C60.42185036 105.62082577 61.08185036 105.62082577 61.76185036 105.62082577 C62.79198313 107.26903821 63.78250112 108.94194136 64.76185036 110.62082577 C68.15910527 115.57170336 71.8442923 119.89552414 76.24622536 123.98020077 C77.92056788 125.79263339 78.88391805 127.31514496 79.76185036 129.62082577 C79.38685036 133.37082577 79.38685036 133.37082577 78.76185036 136.62082577 C77.18072116 137.12775269 75.59683653 137.6260902 74.01185036 138.12082577 C73.13013161 138.39926327 72.24841286 138.67770077 71.33997536 138.96457577 C68.76185036 139.62082577 68.76185036 139.62082577 64.76185036 139.62082577 C64.76185036 140.28082577 64.76185036 140.94082577 64.76185036 141.62082577 C64.10185036 141.62082577 63.44185036 141.62082577 62.76185036 141.62082577 C62.94649402 145.96266779 62.94649402 145.96266779 64.76185036 149.62082577 C65.01185036 153.05832577 65.01185036 153.05832577 64.76185036 156.62082577 C61.76185036 158.62082577 61.76185036 158.62082577 57.76185036 158.62082577 C57.76185036 159.28082577 57.76185036 159.94082577 57.76185036 160.62082577 C59.41185036 161.28082577 61.06185036 161.94082577 62.76185036 162.62082577 C63.13685036 164.87082577 63.13685036 164.87082577 62.76185036 167.62082577 C61.28845192 168.3845953 61.28845192 168.3845953 59.78528786 169.16379452 C56.63777172 171.22519615 56.63777172 171.22519615 56.20667458 173.76682186 C56.01765615 176.41874523 55.97784089 179.02491946 56.01185036 181.68332577 C56.00419245 183.48676261 55.98889525 185.29018755 55.96497536 187.09348202 C55.97174294 187.89020321 55.97851051 188.6869244 55.98548317 189.50778866 C55.76185036 191.62082577 55.76185036 191.62082577 53.76185036 194.62082577 C47.95959345 197.33349197 43.23118079 198.0416977 36.88685036 197.91379452 C36.07691628 197.90954967 35.26698219 197.90530483 34.43250465 197.90093136 C31.87526475 197.88429521 29.31884732 197.84667349 26.76185036 197.80832577 C25.01576808 197.79325937 23.26967331 197.77957441 21.52356911 197.76731014 C17.26935161 197.73444142 13.01573985 197.68276636 8.76185036 197.62082577 C8.76185036 198.28082577 8.76185036 198.94082577 8.76185036 199.62082577 C8.10185036 199.62082577 7.44185036 199.62082577 6.76185036 199.62082577 C6.76185036 200.28082577 6.76185036 200.94082577 6.76185036 201.62082577 C6.10185036 201.62082577 5.44185036 201.62082577 4.76185036 201.62082577 C4.62907692 202.30531796 4.49630348 202.98981014 4.35950661 203.69504452 C3.69359693 206.9549553 2.95228423 210.19243647 2.19935036 213.43332577 C1.92993629 214.59477108 1.66052223 215.75621639 1.38294411 216.95285702 C1.0755027 218.27350155 1.0755027 218.27350155 0.76185036 219.62082577 C-1.21814964 218.63082577 -3.19814964 217.64082577 -5.23814964 216.62082577 C-5.30818792 189.19621494 -5.36111242 161.77161748 -5.39358616 134.34693527 C-5.40906412 121.61357607 -5.43017143 108.88027239 -5.464468 96.14694881 C-5.49434187 85.05037277 -5.51371789 73.95383692 -5.52041513 62.85722178 C-5.52433078 56.98003583 -5.53355251 51.10296491 -5.55533981 45.22581577 C-5.57567309 39.69619049 -5.5819898 34.16672786 -5.57747269 28.63706875 C-5.5782993 26.60572521 -5.58428366 24.57437633 -5.59576607 22.54306507 C-5.61066065 19.77266726 -5.60711427 17.00288599 -5.59891319 14.23247433 C-5.60765172 13.42604844 -5.61639024 12.61962256 -5.62539357 11.78875953 C-5.58557221 6.82236611 -5.48988345 1.52280305 0 0 Z " fill="#D5D61B" transform="translate(84.23814964294434,34.37917423248291)"/>
<path d="M0 0 C3.68046919 0.53534097 4.92815019 0.82473388 7.4375 3.5 C7.83033198 6.1283958 7.96463205 8.34050127 7.92333984 10.96899414 C7.92713654 11.72699814 7.93093323 12.48500214 7.93484497 13.26597595 C7.94225774 15.7727896 7.92086103 18.27844555 7.8984375 20.78515625 C7.89605363 22.52485518 7.89514763 24.26455671 7.8956604 26.0042572 C7.89253129 29.65021886 7.87595627 33.29578757 7.84912109 36.94165039 C7.81511575 41.62166183 7.80749313 46.30124183 7.80901146 50.98136234 C7.8084684 54.57323853 7.79751195 58.16501986 7.78300858 61.75686455 C7.77663219 63.48288696 7.77269972 65.20892014 7.77122116 66.93495369 C7.76689842 69.34362339 7.74942089 71.75182977 7.72802734 74.16040039 C7.72893372 74.87785431 7.72984009 75.59530823 7.73077393 76.33450317 C7.66645841 81.27104159 7.66645841 81.27104159 5.4375 83.5 C3.0546875 83.6953125 3.0546875 83.6953125 0.3125 83.625 C-0.59757813 83.60695313 -1.50765625 83.58890625 -2.4453125 83.5703125 C-3.14398438 83.54710937 -3.84265625 83.52390625 -4.5625 83.5 C-4.5625 82.84 -4.5625 82.18 -4.5625 81.5 C-5.2225 81.5 -5.8825 81.5 -6.5625 81.5 C-8.84559484 77.86070826 -8.83295416 74.75575324 -8.86889648 70.51586914 C-8.87722 69.82105942 -8.88554352 69.12624969 -8.89411926 68.41038513 C-8.91817161 66.11858483 -8.92698462 63.82706928 -8.93359375 61.53515625 C-8.94256252 59.93859269 -8.95168442 58.34202999 -8.96095276 56.74546814 C-8.97743148 53.40068521 -8.98514103 50.05600226 -8.98803711 46.71118164 C-8.9934251 42.4291556 -9.0311259 38.14807106 -9.07678127 33.86631107 C-9.10654761 30.56941813 -9.11376053 27.27275226 -9.11476326 23.97573662 C-9.11896514 22.39727902 -9.13139835 20.81882073 -9.15228081 19.24049568 C-9.17919396 17.03080357 -9.17437311 14.82329869 -9.16186523 12.61352539 C-9.16693588 11.357621 -9.17200653 10.10171661 -9.17723083 8.80775452 C-8.1663856 3.36858064 -5.43366295 0.76261936 0 0 Z " fill="#C9B710" transform="translate(245.5625,171.5)"/>
<path d="M0 0 C0.33 0 0.66 0 1 0 C1 17.49 1 34.98 1 53 C-22.1 53 -45.2 53 -69 53 C-69 52.67 -69 52.34 -69 52 C-68.32195312 51.98582031 -67.64390625 51.97164063 -66.9453125 51.95703125 C-60.52462752 51.62799338 -55.96710765 50.36754518 -50.3515625 47.265625 C-48.15734812 46.0846857 -46.0338317 45.20104936 -43.6875 44.375 C-40.48026862 43.17908321 -37.89303912 41.7868771 -35 40 C-34.34 40 -33.68 40 -33 40 C-33 39.34 -33 38.68 -33 38 C-32.01 37.484375 -31.02 36.96875 -30 36.4375 C-26.09743708 34.23585045 -22.96140996 31.44131854 -19.69921875 28.390625 C-18 27 -18 27 -16 27 C-15.773125 26.443125 -15.54625 25.88625 -15.3125 25.3125 C-14 23 -14 23 -11.5 20.5625 C-8.94855007 17.94726382 -8.20397652 16.37113426 -7 13 C-5.72717524 10.62769238 -4.36544078 8.32124933 -3 6 C-2.34 6 -1.68 6 -1 6 C-0.67 4.02 -0.34 2.04 0 0 Z " fill="#060706" transform="translate(360,239)"/>
<path d="M0 0 C2.3557345 3.14097933 3.61436043 5.40564563 5.046875 8.93359375 C6.61867354 12.34130453 8.62497658 15.48056012 10.59765625 18.66796875 C11.84371023 20.74009752 12.95349457 22.82186668 14 25 C14.66 25 15.32 25 16 25 C17.68732277 26.98260426 19.35366057 28.9832342 21 31 C21.66 31.33 22.32 31.66 23 32 C23 32.66 23 33.32 23 34 C23.5775 34.28875 24.155 34.5775 24.75 34.875 C26.83333333 35.91666667 28.91666667 36.95833333 31 38 C31 38.66 31 39.32 31 40 C31.804375 40.226875 32.60875 40.45375 33.4375 40.6875 C36.35144783 41.76105973 38.60558676 42.87809468 41.25 44.4375 C45.29274997 46.76327832 49.23788339 48.1429549 53.73828125 49.32421875 C56 50 56 50 57.93359375 51.04296875 C60.56524846 52.26178804 62.86543766 52.41895983 65.75 52.625 C66.73484375 52.69976562 67.7196875 52.77453125 68.734375 52.8515625 C69.48203125 52.90054688 70.2296875 52.94953125 71 53 C71 53.33 71 53.66 71 54 C47.57 54 24.14 54 0 54 C0 36.18 0 18.36 0 0 Z " fill="#060707" transform="translate(0,238)"/>
<path d="M0 0 C21.45 0 42.9 0 65 0 C65 17.82 65 35.64 65 54 C62.2946129 49.94191935 60 45.95110601 60 41 C59.34 41 58.68 41 58 41 C54 35.70588235 54 35.70588235 54 32 C52.68 31.34 51.36 30.68 50 30 C50 29.34 50 28.68 50 28 C49.34 28 48.68 28 48 28 C47.9175 27.38125 47.835 26.7625 47.75 26.125 C47.21665034 23.86129168 47.21665034 23.86129168 45.21875 23.0234375 C44.4865625 22.68570312 43.754375 22.34796875 43 22 C41.57168265 21.18679742 40.15475553 20.35325892 38.75 19.5 C38.04359375 19.0771875 37.3371875 18.654375 36.609375 18.21875 C36.07828125 17.8165625 35.5471875 17.414375 35 17 C35 16.34 35 15.68 35 15 C30.4991182 12.71141603 25.90631059 10.62607524 21.31640625 8.5234375 C19.3599797 7.62472566 17.40756903 6.71702064 15.46484375 5.7890625 C10.4082777 3.41684633 5.49679499 1.98760383 0 1 C0 0.67 0 0.34 0 0 Z " fill="#060707" transform="translate(296,0)"/>
<path d="M0 0 C21.45 0 42.9 0 65 0 C62.45306766 2.54693234 60.55643043 2.72074764 57.0625 3.5 C53.39074929 4.32090174 51.15866186 4.89422543 48 7 C46.906875 7.309375 45.81375 7.61875 44.6875 7.9375 C39.81220124 9.3422471 35.95151282 11.35955868 31.75 14.1875 C29 16 29 16 27 16 C27 16.66 27 17.32 27 18 C25.42578125 19.515625 25.42578125 19.515625 23.3125 21.25 C20.64650867 23.50075728 18.28989909 25.70049545 16.125 28.4375 C15.42375 29.283125 14.7225 30.12875 14 31 C13.34 31 12.68 31 12 31 C11.01 33.475 11.01 33.475 10 36 C9.34 36 8.68 36 8 36 C7.896875 36.721875 7.79375 37.44375 7.6875 38.1875 C7 41 7 41 5.625 43.1875 C3.29561327 47.21913088 2.22425243 51.52843972 1 56 C0.67 56 0.34 56 0 56 C0 37.52 0 19.04 0 0 Z " fill="#060707" transform="translate(0,0)"/>
<path d="M0 0 C1.68965149 1.22749329 1.68965149 1.22749329 3 3 C3.36076355 5.41081238 3.36076355 5.41081238 3.34057617 8.29760742 C3.34034958 9.37850143 3.34012299 10.45939545 3.33988953 11.57304382 C3.32440567 12.73874405 3.30892181 13.90444427 3.29296875 15.10546875 C3.28872391 16.29981033 3.28447906 17.49415192 3.28010559 18.72468567 C3.26328959 22.54585144 3.22563093 26.36649316 3.1875 30.1875 C3.17245699 32.77538302 3.15876792 35.36327429 3.14648438 37.95117188 C3.11337645 44.30096058 3.06314762 50.65044286 3 57 C-1.37856441 59.29402299 -4.04782088 59.39303009 -9 59 C-10.71984863 57.80186462 -10.71984863 57.80186462 -12 56 C-12.39440918 53.65406799 -12.39440918 53.65406799 -12.41992188 50.85766602 C-12.43583374 49.80970352 -12.45174561 48.76174103 -12.46813965 47.68202209 C-12.46834106 46.55074387 -12.46854248 45.41946564 -12.46875 44.25390625 C-12.47636353 43.09124741 -12.48397705 41.92858856 -12.49182129 40.73069763 C-12.50263366 38.27027536 -12.50547081 35.80980715 -12.50097656 33.34936523 C-12.50000463 29.58044027 -12.54160936 25.81355253 -12.5859375 22.04492188 C-12.59114451 19.65625426 -12.59383269 17.26757954 -12.59375 14.87890625 C-12.61014526 13.74965225 -12.62654053 12.62039825 -12.64343262 11.45692444 C-12.57461068 3.6829877 -12.57461068 3.6829877 -9.68945312 0.25366211 C-6.01912743 -1.4572241 -3.8591114 -1.07197539 0 0 Z " fill="#D2B013" transform="translate(278,185)"/>
<path d="M0 0 C3.92684736 0.47392985 5.6390341 0.87076081 8.625 3.4375 C9.13041004 6.37943611 9.30384675 8.74063238 9.25390625 11.68359375 C9.25631821 12.49111588 9.25873016 13.298638 9.26121521 14.13063049 C9.26023609 15.83786937 9.24682678 17.54513974 9.22192383 19.25219727 C9.18766286 21.86259177 9.20124578 24.46959233 9.22070312 27.08007812 C9.21380319 28.73959772 9.20412946 30.39910858 9.19140625 32.05859375 C9.19636612 32.83786728 9.20132599 33.61714081 9.20643616 34.42002869 C9.13009307 37.94295278 8.9094539 40.04723124 6.80834961 42.92993164 C3.60073679 45.14473754 1.42720771 44.98067253 -2.375 44.4375 C-4.56274414 42.9140625 -4.56274414 42.9140625 -6.375 40.4375 C-6.76086012 37.59546651 -6.91335331 35.14985756 -6.87109375 32.3125 C-6.87254898 31.52858887 -6.87400421 30.74467773 -6.87550354 29.93701172 C-6.87384665 28.28283972 -6.86230872 26.62865198 -6.84155273 24.97460938 C-6.81259673 22.44594694 -6.82094701 19.91938195 -6.83398438 17.390625 C-6.82774653 15.78123983 -6.81935522 14.17186127 -6.80859375 12.5625 C-6.81152939 11.8082373 -6.81446503 11.05397461 -6.81748962 10.27685547 C-6.76063132 7.10524996 -6.55760553 4.78164249 -5.05883789 1.95703125 C-3.375 0.4375 -3.375 0.4375 0 0 Z " fill="#AAB90B" transform="translate(216.375,191.5625)"/>
<path d="M0 0 C-1.43160268 1.00842453 -2.87051453 2.00647891 -4.3125 3 C-5.51326172 3.8353125 -5.51326172 3.8353125 -6.73828125 4.6875 C-9 6 -9 6 -12 6 C-12 6.66 -12 7.32 -12 8 C-13.62823156 9.70423518 -15.30310132 11.36412396 -17 13 C-18.74243465 14.84170379 -20.47160612 16.69604357 -22.1875 18.5625 C-23.04730469 19.49191406 -23.90710938 20.42132812 -24.79296875 21.37890625 C-26.65632935 23.59185309 -27.83267573 25.39508426 -29 28 C-30.5 29.75 -30.5 29.75 -32 31 C-32.66 31 -33.32 31 -34 31 C-34.0825 31.639375 -34.165 32.27875 -34.25 32.9375 C-34.91943488 35.67102577 -35.76347191 37.62954296 -37 40.125 C-38.53981588 43.49997993 -39.31099715 46.34362825 -39.59107971 50.03935242 C-39.66444613 51.00535559 -39.73781254 51.97135876 -39.81340218 52.96663475 C-40.12659164 58.05789481 -40.36256514 63.14769067 -40.54272461 68.24536133 C-40.58454581 69.40963811 -40.62636702 70.57391489 -40.66945553 71.77347279 C-41.11774541 85.17583127 -41.22256053 98.57971742 -41.30332303 111.98841834 C-41.32572427 115.55974918 -41.35283893 119.13104476 -41.37937927 122.7023468 C-41.42859607 129.41629542 -41.47378731 136.13026436 -41.51740164 142.84425145 C-41.56739537 150.50860037 -41.62207574 158.17291385 -41.67708123 165.83722818 C-41.78980596 181.55811909 -41.89686798 197.27904304 -42 213 C-42.33 213 -42.66 213 -43 213 C-43.0701563 191.26825114 -43.12302061 169.53652101 -43.15543652 147.80468178 C-43.17088946 137.71366205 -43.19194888 127.62271278 -43.22631836 117.53173828 C-43.25626889 108.7339655 -43.27558643 99.93624377 -43.28226548 91.13842142 C-43.28616817 86.48228851 -43.29530717 81.82630161 -43.31719017 77.17021561 C-43.33764471 72.78226279 -43.34381576 68.39451529 -43.33932304 64.00651932 C-43.34014425 62.40137616 -43.34605629 60.7962257 -43.35761642 59.19112396 C-43.43225416 48.28739048 -42.46845108 39.12950205 -37.3125 29.375 C-36.87550781 28.53710938 -36.43851563 27.69921875 -35.98828125 26.8359375 C-35.66214844 26.23007812 -35.33601563 25.62421875 -35 25 C-34.34 25 -33.68 25 -33 25 C-32.34 23.35 -31.68 21.7 -31 20 C-30.34 20 -29.68 20 -29 20 C-28.7628125 19.43796875 -28.525625 18.8759375 -28.28125 18.296875 C-26.71052303 15.48105958 -24.78528536 13.52044584 -22.5 11.25 C-21.7059375 10.45078125 -20.911875 9.6515625 -20.09375 8.828125 C-18 7 -18 7 -16 7 C-16 6.34 -16 5.68 -16 5 C-11.19168584 1.64875074 -5.86217481 -1.89847237 0 0 Z " fill="#3C370E" transform="translate(43,11)"/>
<path d="M0 0 C0.2165625 0.9590625 0.2165625 0.9590625 0.4375 1.9375 C0.81007181 3.97545146 0.81007181 3.97545146 2 5 C2.33 5 2.66 5 3 5 C2.125 12.625 2.125 12.625 1 16 C0.34 16 -0.32 16 -1 16 C-1.28875 16.94875 -1.5775 17.8975 -1.875 18.875 C-3 22 -3 22 -5 24 C-5.4021875 25.1446875 -5.4021875 25.1446875 -5.8125 26.3125 C-7.30278382 29.68524759 -9.30838543 31.49617249 -12 34 C-12.763125 34.78375 -13.52625 35.5675 -14.3125 36.375 C-26.21428571 48 -26.21428571 48 -31 48 C-31 48.66 -31 49.32 -31 50 C-37.22331219 53.53493284 -43.26042472 56.60116812 -50 59 C-50.81082031 59.51820313 -51.62164062 60.03640625 -52.45703125 60.5703125 C-57.73088272 62.69845984 -62.74930089 62.31671217 -68.375 62.1875 C-70.05142578 62.16719727 -70.05142578 62.16719727 -71.76171875 62.14648438 C-74.50831211 62.11127164 -77.25390289 62.06202096 -80 62 C-79.360625 61.690625 -78.72125 61.38125 -78.0625 61.0625 C-76.06389179 60.1654837 -76.06389179 60.1654837 -75 59 C-73.50175822 58.88947397 -72.00097911 58.8132943 -70.5 58.75 C-47.73227602 56.87501097 -27.75347977 44.04192902 -12.625 27.4375 C-9.97552142 24.23330965 -8.5084692 20.8789208 -7 17 C-6.46375 16.175 -5.9275 15.35 -5.375 14.5 C-3.65068392 11.36487986 -3.34644126 8.53370086 -3 5 C-2.34 5 -1.68 5 -1 5 C-0.67 3.35 -0.34 1.7 0 0 Z " fill="#2B2C05" transform="translate(358,229)"/>
<path d="M0 0 C0.33 0 0.66 0 1 0 C1.00423194 0.61823859 1.00846388 1.23647718 1.01282406 1.87345028 C1.11662129 16.99261234 1.22532691 32.11173072 1.33933926 47.23081875 C1.3943617 54.54261765 1.44778875 61.8544214 1.49731445 69.16625977 C1.54054006 75.5473474 1.58690727 81.9284036 1.63687855 88.3094421 C1.663175 91.68078445 1.68754373 95.05211241 1.70907402 98.42349052 C1.79083123 111.08548389 1.92166998 123.69303141 2.78184509 136.32774353 C3.13868732 142.33455858 3.12394671 148.33221855 3.09765625 154.34765625 C3.0962413 155.61097275 3.09482635 156.87428925 3.09336853 158.17588806 C3.08785333 162.13811806 3.075318 166.10028762 3.0625 170.0625 C3.05689635 172.77929543 3.05284377 175.49609244 3.04882812 178.21289062 C3.03791192 184.80861373 3.02126136 191.40430255 3 198 C3.99 198 4.98 198 6 198 C7.88259397 200.76852055 7.99761714 202.02621145 7.6875 205.4375 C7.3471875 207.2009375 7.3471875 207.2009375 7 209 C6.814375 209.969375 6.62875 210.93875 6.4375 211.9375 C6.293125 212.618125 6.14875 213.29875 6 214 C4.02 213.01 2.04 212.02 0 211 C0 141.37 0 71.74 0 0 Z " fill="#84A211" transform="translate(79,40)"/>
<path d="M0 0 C3.68046919 0.53534097 4.92815019 0.82473388 7.4375 3.5 C7.83033198 6.1283958 7.96463205 8.34050127 7.92333984 10.96899414 C7.92713654 11.72699814 7.93093323 12.48500214 7.93484497 13.26597595 C7.94225774 15.7727896 7.92086103 18.27844555 7.8984375 20.78515625 C7.89605363 22.52485518 7.89514763 24.26455671 7.8956604 26.0042572 C7.89253129 29.65021886 7.87595627 33.29578757 7.84912109 36.94165039 C7.81511575 41.62166183 7.80749313 46.30124183 7.80901146 50.98136234 C7.8084684 54.57323853 7.79751195 58.16501986 7.78300858 61.75686455 C7.77663219 63.48288696 7.77269972 65.20892014 7.77122116 66.93495369 C7.76689842 69.34362339 7.74942089 71.75182977 7.72802734 74.16040039 C7.72893372 74.87785431 7.72984009 75.59530823 7.73077393 76.33450317 C7.66645841 81.27104159 7.66645841 81.27104159 5.4375 83.5 C3.0546875 83.6953125 3.0546875 83.6953125 0.3125 83.625 C-0.59757813 83.60695313 -1.50765625 83.58890625 -2.4453125 83.5703125 C-3.14398438 83.54710937 -3.84265625 83.52390625 -4.5625 83.5 C-4.5625 82.84 -4.5625 82.18 -4.5625 81.5 C-5.2225 81.5 -5.8825 81.5 -6.5625 81.5 C-8.84559484 77.86070826 -8.83295416 74.75575324 -8.86889648 70.51586914 C-8.87722 69.82105942 -8.88554352 69.12624969 -8.89411926 68.41038513 C-8.91817161 66.11858483 -8.92698462 63.82706928 -8.93359375 61.53515625 C-8.94256252 59.93859269 -8.95168442 58.34202999 -8.96095276 56.74546814 C-8.97743148 53.40068521 -8.98514103 50.05600226 -8.98803711 46.71118164 C-8.9934251 42.4291556 -9.0311259 38.14807106 -9.07678127 33.86631107 C-9.10654761 30.56941813 -9.11376053 27.27275226 -9.11476326 23.97573662 C-9.11896514 22.39727902 -9.13139835 20.81882073 -9.15228081 19.24049568 C-9.17919396 17.03080357 -9.17437311 14.82329869 -9.16186523 12.61352539 C-9.16693588 11.357621 -9.17200653 10.10171661 -9.17723083 8.80775452 C-8.1663856 3.36858064 -5.43366295 0.76261936 0 0 Z M-6.5625 5.5 C-7.1489042 7.92835736 -7.1489042 7.92835736 -7.04833984 10.58813477 C-7.0544931 11.59920792 -7.06064636 12.61028107 -7.06698608 13.6519928 C-7.05261505 14.73749924 -7.03824402 15.82300568 -7.0234375 16.94140625 C-7.02252106 18.06062973 -7.02160461 19.17985321 -7.0206604 20.33299255 C-7.01462126 22.69754277 -6.99886605 25.06208522 -6.97412109 27.42651367 C-6.93760368 31.05220618 -6.93310181 34.67687714 -6.93359375 38.30273438 C-6.92376312 40.59896719 -6.91210636 42.89519307 -6.8984375 45.19140625 C-6.89621185 46.27893692 -6.89398621 47.36646759 -6.89169312 48.48695374 C-6.87893341 49.49487473 -6.86617371 50.50279572 -6.85302734 51.54125977 C-6.84159195 52.87218407 -6.84159195 52.87218407 -6.82992554 54.22999573 C-6.70350545 56.77982815 -6.70350545 56.77982815 -4.5625 59.5 C-4.3671875 62.63671875 -4.3671875 62.63671875 -4.4375 66.1875 C-4.45554688 67.36699219 -4.47359375 68.54648438 -4.4921875 69.76171875 C-4.51539063 70.66535156 -4.53859375 71.56898438 -4.5625 72.5 C-3.9025 72.5 -3.2425 72.5 -2.5625 72.5 C-2.5625 74.48 -2.5625 76.46 -2.5625 78.5 C-3.5525 78.17 -4.5425 77.84 -5.5625 77.5 C-5.5625 78.16 -5.5625 78.82 -5.5625 79.5 C-2.46032379 81.33832664 -0.16841321 81.97446226 3.4375 81.5 C5.67603623 78.14219565 5.72881387 76.88056379 5.8515625 72.9375 C5.89063721 71.76799805 5.92971191 70.59849609 5.9699707 69.39355469 C6.00050537 68.10868164 6.03104004 66.82380859 6.0625 65.5 C6.07985199 64.84181274 6.09720398 64.18362549 6.11508179 63.50549316 C6.23234204 59.02784655 6.32027755 54.55008581 6.39459229 50.0715332 C6.42424073 48.294651 6.45555618 46.51779612 6.48822021 44.7409668 C6.59507842 38.8820947 6.6748634 33.02372244 6.72259521 27.1640625 C6.74085963 25.221933 6.76563637 23.27985379 6.79693604 21.33789062 C6.83865268 18.59480103 6.8543134 15.85274175 6.86328125 13.109375 C6.88073898 12.2825824 6.89819672 11.45578979 6.91618347 10.60394287 C6.94574994 6.11664524 6.94574994 6.11664524 4.56713867 2.48925781 C-0.52063177 0.12589133 -3.12423923 1.29753509 -6.5625 5.5 Z " fill="#766F09" transform="translate(245.5625,171.5)"/>
<path d="M0 0 C1.45823212 -0.0270043 2.91660675 -0.04639787 4.375 -0.0625 C5.18710937 -0.07410156 5.99921875 -0.08570313 6.8359375 -0.09765625 C9 0 9 0 11 1 C11.05786668 4.79160297 11.09355054 8.58309311 11.125 12.375 C11.14175781 13.45523438 11.15851563 14.53546875 11.17578125 15.6484375 C11.18222656 16.6796875 11.18867188 17.7109375 11.1953125 18.7734375 C11.20578613 19.72653809 11.21625977 20.67963867 11.22705078 21.66162109 C11 24 11 24 9 26 C1.73617014 26.57649443 1.73617014 26.57649443 -0.60058594 24.74658203 C-2.34570899 22.5685272 -2.37419655 21.45533656 -2.36328125 18.69140625 C-2.36263672 17.86189453 -2.36199219 17.03238281 -2.36132812 16.17773438 C-2.34521484 15.31470703 -2.32910156 14.45167969 -2.3125 13.5625 C-2.31572266 12.70333984 -2.31894531 11.84417969 -2.32226562 10.95898438 C-2.28580431 6.68638089 -2.15252384 3.77856574 0 0 Z " fill="#E2BB12" transform="translate(296,201)"/>
<path d="M0 0 C2.1640625 -0.29296875 2.1640625 -0.29296875 4.625 -0.1875 C5.44226563 -0.16042969 6.25953125 -0.13335937 7.1015625 -0.10546875 C8.04128906 -0.05326172 8.04128906 -0.05326172 9 0 C9 0.66 9 1.32 9 2 C10.32 2.66 11.64 3.32 13 4 C13 9.61 13 15.22 13 21 C8.07371134 22.23157217 3.85874101 22.61958034 -1 21 C-2.5720124 17.85597519 -2.18446744 14.51052603 -2.1875 11.0625 C-2.19974609 10.33353516 -2.21199219 9.60457031 -2.22460938 8.85351562 C-2.23512685 5.0286609 -2.17095624 3.25643436 0 0 Z " fill="#8CA70B" transform="translate(185,202)"/>
<path d="M0 0 C1.57839936 0.00113144 3.15680082 0.00048885 4.73519897 -0.00177002 C8.97409397 -0.00290656 13.21252601 0.02042846 17.45131445 0.04852581 C21.89819262 0.07371858 26.34508418 0.07589543 30.79202271 0.08062744 C39.19232504 0.09300513 47.59241641 0.1257554 55.99262631 0.1660254 C65.56468575 0.21090625 75.13675584 0.23277097 84.70889449 0.25280714 C104.38042842 0.29449332 124.05177312 0.36474289 143.72314453 0.45410156 C143.72314453 0.78410156 143.72314453 1.11410156 143.72314453 1.45410156 C142.6447572 1.46044947 142.6447572 1.46044947 141.54458427 1.46692562 C123.99802535 1.57052846 106.45150508 1.67920851 88.90501213 1.79344082 C80.41943534 1.84856355 71.93385435 1.90200943 63.44824219 1.95141602 C56.04649167 1.99451629 48.64476949 2.04085627 41.24306309 2.09098011 C37.32911364 2.11737479 33.41516904 2.14221948 29.50118637 2.16317558 C25.80597619 2.18301176 22.1108189 2.20722825 18.41565704 2.23459244 C16.4359672 2.24817347 14.45624831 2.25730076 12.47653198 2.26622009 C-4.11548105 2.33789121 -4.11548105 2.33789121 -20.33935547 5.39160156 C-22.15113281 5.90013672 -22.15113281 5.90013672 -23.99951172 6.41894531 C-27.219327 7.38782037 -27.219327 7.38782037 -30.03466797 8.57519531 C-32.58490973 9.57485454 -34.56167659 9.60925464 -37.27685547 9.45410156 C-25.91712895 0.836378 -13.83851902 -0.14112572 0 0 Z " fill="#473D0C" transform="translate(81.27685546875,-0.4541015625)"/>
<path d="M0 0 C0.66 0 1.32 0 2 0 C2.144375 1.134375 2.28875 2.26875 2.4375 3.4375 C2.61171478 6.80777201 2.61171478 6.80777201 4 8 C4.25 11.4375 4.25 11.4375 4 15 C1 17 1 17 -3 17 C-3 17.66 -3 18.32 -3 19 C-1.35 19.66 0.3 20.32 2 21 C2.375 23.25 2.375 23.25 2 26 C1.01773438 26.50917969 0.03546875 27.01835937 -0.9765625 27.54296875 C-4.12407864 29.60437039 -4.12407864 29.60437039 -4.55517578 32.14599609 C-4.74419421 34.79791946 -4.78400946 37.40409369 -4.75 40.0625 C-4.75765791 41.86593685 -4.7729551 43.66936178 -4.796875 45.47265625 C-4.79010742 46.26937744 -4.78333984 47.06609863 -4.77636719 47.88696289 C-5 50 -5 50 -7 53 C-8.83984375 53.984375 -8.83984375 53.984375 -10.9375 54.75 C-11.97197266 55.14445312 -11.97197266 55.14445312 -13.02734375 55.546875 C-15 56 -15 56 -18 55 C-16.8125 53.0625 -16.8125 53.0625 -15 51 C-14.154375 50.855625 -13.30875 50.71125 -12.4375 50.5625 C-9.82682205 50.26012621 -9.82682205 50.26012621 -8.6875 47.9375 C-7.80591514 44.17072831 -7.86895593 40.86580013 -8 37 C-8.33 37 -8.66 37 -9 37 C-9.3841073 34.38807037 -9.40150173 32.62856826 -7.95703125 30.3671875 C-6.14567494 28.16806283 -4.57347501 26.2867375 -2 25 C-1.34786708 22.97536745 -1.34786708 22.97536745 -1 21 C-2.98 20.34 -4.96 19.68 -7 19 C-6.67 18.34 -6.34 17.68 -6 17 C-5.21625 16.7525 -4.4325 16.505 -3.625 16.25 C-0.10596134 14.5742673 0.54713026 12.51747412 2 9 C1.01 8.67 0.02 8.34 -1 8 C-1.125 2.25 -1.125 2.25 0 0 Z " fill="#8EB40A" transform="translate(145,176)"/>
<path d="M0 0 C-0.33 0.99 -0.66 1.98 -1 3 C-1.69867188 3.12117187 -2.39734375 3.24234375 -3.1171875 3.3671875 C-4.02726563 3.53476563 -4.93734375 3.70234375 -5.875 3.875 C-7.23238281 4.11863281 -7.23238281 4.11863281 -8.6171875 4.3671875 C-11.16505988 4.83044703 -11.16505988 4.83044703 -13 7 C-13.27891147 10.01263725 -13.27891147 10.01263725 -13.1953125 13.5390625 C-13.18564453 15.49199219 -13.18564453 15.49199219 -13.17578125 17.484375 C-13.15906929 18.86458595 -13.14213939 20.24479429 -13.125 21.625 C-13.11497006 23.01301452 -13.10584423 24.40103589 -13.09765625 25.7890625 C-13.07401863 29.19288026 -13.04106867 32.59635506 -13 36 C-11.515 35.505 -11.515 35.505 -10 35 C-7.93412885 35.08573227 -5.87053475 35.23833535 -3.8125 35.4375 C-2.72582031 35.53933594 -1.63914063 35.64117187 -0.51953125 35.74609375 C0.31191406 35.82988281 1.14335937 35.91367188 2 36 C2 36.66 2 37.32 2 38 C6.14093698 38.20970559 6.14093698 38.20970559 10 37 C12.6723621 36.86584528 15.32250488 36.95681459 18 37 C15.41989373 39.58010627 13.70283276 39.97258935 10.08911133 40.11352539 C8.9317749 40.10828857 7.77443848 40.10305176 6.58203125 40.09765625 C4.88784058 40.09390991 4.88784058 40.09390991 3.15942383 40.09008789 C1.00769653 40.07643188 1.00769653 40.07643188 -1.1875 40.0625 C-5.745625 40.041875 -10.30375 40.02125 -15 40 C-15 27.46 -15 14.92 -15 2 C-14.34 2 -13.68 2 -13 2 C-13 1.34 -13 0.68 -13 0 C-11.20909747 -0.19466332 -9.41723495 -0.38051213 -7.625 -0.5625 C-6.12839844 -0.71912109 -6.12839844 -0.71912109 -4.6015625 -0.87890625 C-2 -1 -2 -1 0 0 Z " fill="#9EA70D" transform="translate(198,131)"/>
<path d="M0 0 C3.638295 -0.41188245 6.25435597 -0.27930366 9.69116211 1.00805664 C12 3 12 3 12.63110352 6.67358398 C12.65735278 8.19752803 12.65476689 9.72214306 12.62890625 11.24609375 C12.63131821 12.05361588 12.63373016 12.861138 12.63621521 13.69313049 C12.63523609 15.40036937 12.62182678 17.10763974 12.59692383 18.81469727 C12.56266286 21.42509177 12.57624578 24.03209233 12.59570312 26.64257812 C12.58880319 28.30209772 12.57912946 29.96160858 12.56640625 31.62109375 C12.57136612 32.40036728 12.57632599 33.17964081 12.58143616 33.98252869 C12.50509307 37.50545278 12.2844539 39.60973124 10.18334961 42.49243164 C6.97573679 44.70723754 4.80220771 44.54317253 1 44 C-1.19433594 42.48535156 -1.19433594 42.48535156 -3 40 C-3.3491005 37.1103488 -3.4681562 34.6140729 -3.390625 31.734375 C-3.38496521 30.94097717 -3.37930542 30.14757935 -3.37347412 29.33013916 C-3.35113147 26.80280527 -3.30094176 24.27690335 -3.25 21.75 C-3.22993214 20.03387468 -3.21168187 18.31772708 -3.1953125 16.6015625 C-3.15127395 12.4004922 -3.08226326 8.20048865 -3 4 C-2.67 4 -2.34 4 -2 4 C-1.04710229 10.66227642 -0.69409823 17.2779677 -0.4375 24 C-0.37272461 25.59134766 -0.37272461 25.59134766 -0.30664062 27.21484375 C-0.20144004 29.80979151 -0.09929881 32.40482084 0 35 C0.33 35 0.66 35 1 35 C1 37.31 1 39.62 1 42 C2.65 42 4.3 42 6 42 C5.505 40.515 5.505 40.515 5 39 C5.66 39 6.32 39 7 39 C11.94702596 34.05297404 10.18426519 25.36402905 10.1875 18.875 C10.20586914 16.92400391 10.20586914 16.92400391 10.22460938 14.93359375 C10.22654297 13.69480469 10.22847656 12.45601562 10.23046875 11.1796875 C10.23457764 10.04257324 10.23868652 8.90545898 10.24291992 7.73388672 C10.28173869 4.85390649 10.28173869 4.85390649 8 3 C5.55987051 2.75712511 5.55987051 2.75712511 2.875 2.875 C1.96492187 2.89304688 1.05484375 2.91109375 0.1171875 2.9296875 C-0.58148438 2.95289063 -1.28015625 2.97609375 -2 3 C-1.34 2.01 -0.68 1.02 0 0 Z " fill="#7E8907" transform="translate(213,192)"/>
<path d="M0 0 C0.6875 1.75 0.6875 1.75 1 4 C-0.4375 6.25 -0.4375 6.25 -2 8 C-2 6.35 -2 4.7 -2 3 C-6.06024321 5.03802135 -6.06024321 5.03802135 -8 9 C-7.88913519 11.04545583 -7.71597541 13.08795921 -7.5 15.125 C-7.29376322 17.07956226 -7.11712952 19.03808056 -7 21 C-7.33 21.33 -7.66 21.66 -8 22 C-8.15873955 24.21687994 -8.25133837 26.43855298 -8.31640625 28.66015625 C-8.33718735 29.32462265 -8.35796844 29.98908905 -8.37937927 30.6736908 C-8.44493658 32.80318543 -8.50378785 34.93280668 -8.5625 37.0625 C-8.60567939 38.50326847 -8.64929349 39.94402399 -8.69335938 41.38476562 C-8.80062393 44.9230404 -8.90187371 48.46145869 -9 52 C-9.33 52 -9.66 52 -10 52 C-10.63907101 39.42423831 -11.13451854 26.84126139 -11.3125 14.25 C-11.34214844 13.18595947 -11.37179688 12.12191895 -11.40234375 11.02563477 C-11.45938778 3.69963653 -11.45938778 3.69963653 -9.21484375 0.28125 C-5.94639614 -1.60949218 -3.57110438 -0.82410101 0 0 Z " fill="#DAC414" transform="translate(250,174)"/>
<path d="M0 0 C0 0.33 0 0.66 0 1 C-1.57587891 1.16435547 -1.57587891 1.16435547 -3.18359375 1.33203125 C-13.34729512 2.45128549 -13.34729512 2.45128549 -23.140625 5.29296875 C-25 6 -25 6 -28.3125 6.8125 C-35.1037755 8.99952092 -41.94384386 11.89856485 -47 17 C-49.6875 17.1875 -49.6875 17.1875 -52 17 C-52 16.34 -52 15.68 -52 15 C-48.37 13.02 -44.74 11.04 -41 9 C-42.65 9.33 -44.3 9.66 -46 10 C-46.99 10 -47.98 10 -49 10 C-43.90322581 5.99539171 -43.90322581 5.99539171 -41 5 C-39.4840625 5.309375 -39.4840625 5.309375 -37.9375 5.625 C-33.09913664 6.08579651 -30.1996845 4.80498144 -25.74609375 3.05859375 C-17.2047162 -0.23402832 -9.09368589 -0.23283975 0 0 Z " fill="#352F09" transform="translate(83,2)"/>
<path d="M0 0 C1.60498047 1.11938477 1.60498047 1.11938477 3 3 C3.34057617 5.91088867 3.34057617 5.91088867 3.29296875 9.41796875 C3.28330078 10.67158203 3.27363281 11.92519531 3.26367188 13.21679688 C3.23853516 14.52712891 3.21339844 15.83746094 3.1875 17.1875 C3.17244967 18.52277163 3.15876187 19.85805937 3.14648438 21.19335938 C3.11107694 24.46264576 3.0616889 27.73112093 3 31 C2.34 31 1.68 31 1 31 C0.97494385 30.19780029 0.9498877 29.39560059 0.92407227 28.5690918 C0.80817957 24.94172926 0.68542249 21.31463083 0.5625 17.6875 C0.52318359 16.42486328 0.48386719 15.16222656 0.44335938 13.86132812 C0.40146484 12.65283203 0.35957031 11.44433594 0.31640625 10.19921875 C0.27974854 9.08377686 0.24309082 7.96833496 0.20532227 6.8190918 C0.11068791 3.92126429 0.11068791 3.92126429 -1 1 C-3.50358872 1.48207356 -3.50358872 1.48207356 -6 3 C-7.37967524 6.53514293 -7.37967524 6.53514293 -8 10 C-8.66 10 -9.32 10 -10 10 C-10 7.03 -10 4.06 -10 1 C-6.88450128 -0.55774936 -3.3955612 -0.56480622 0 0 Z " fill="#B3BD0D" transform="translate(221,194)"/>
<path d="M0 0 C4.2618617 5.23046663 5.26464369 9.25158598 5 16 C5.66 16 6.32 16 7 16 C7.48998543 42.51365623 7.48998543 42.51365623 2 50 C1.67 49.34 1.34 48.68 1 48 C1.29519531 47.15695313 1.59039062 46.31390625 1.89453125 45.4453125 C3.2545785 41.20657868 3.49881032 37.29950844 3.6875 32.875 C3.72584961 32.03549805 3.76419922 31.19599609 3.80371094 30.33105469 C4.16960702 20.90107938 4.12408207 12.60677997 0 4 C0 2.68 0 1.36 0 0 Z " fill="#A2921B" transform="translate(274,77)"/>
<path d="M0 0 C-1.43160268 1.00842453 -2.87051453 2.00647891 -4.3125 3 C-5.11300781 3.556875 -5.91351563 4.11375 -6.73828125 4.6875 C-9 6 -9 6 -12 6 C-12 6.66 -12 7.32 -12 8 C-13.52952876 9.37482452 -15.12522906 10.67665897 -16.75 11.9375 C-17.63171875 12.62714844 -18.5134375 13.31679688 -19.421875 14.02734375 C-21.60521903 15.69793275 -23.79576052 17.35712058 -26 19 C-24.65002957 13.33012418 -22.2781417 10.74337399 -18 7 C-17.34 7 -16.68 7 -16 7 C-16 6.34 -16 5.68 -16 5 C-11.19168584 1.64875074 -5.86217481 -1.89847237 0 0 Z " fill="#41390F" transform="translate(43,11)"/>
<path d="M0 0 C-3.28661767 2.19107845 -5.07238241 2.44557594 -8.9375 2.9375 C-16.30864666 3.98346159 -23.74290226 5.26724279 -30.66796875 8.0859375 C-33.26570894 9.10414722 -35.23478553 9.15801226 -38 9 C-26.27250765 0.10328167 -14.16968772 -0.61756508 0 0 Z " fill="#514710" transform="translate(82,0)"/>
<path d="M0 0 C0.99 0.33 1.98 0.66 3 1 C2.01 2.485 2.01 2.485 1 4 C0.88427179 6.45569619 0.87714439 8.91731938 0.9375 11.375 C1.09977224 18.52908918 1.09977224 18.52908918 0.51806641 21.2746582 C-0.11909053 24.62648804 -0.21816058 27.85900293 -0.31640625 31.26953125 C-0.33718735 31.95053391 -0.35796844 32.63153656 -0.37937927 33.33317566 C-0.44437878 35.49285508 -0.50352712 37.65264846 -0.5625 39.8125 C-0.6057325 41.28321456 -0.64934825 42.75391791 -0.69335938 44.22460938 C-0.80000859 47.81628717 -0.90141349 51.40809082 -1 55 C-1.33 55 -1.66 55 -2 55 C-2 37.18 -2 19.36 -2 1 C-1.34 0.67 -0.68 0.34 0 0 Z " fill="#F4D018" transform="translate(270,186)"/>
<path d="M0 0 C0.66 0 1.32 0 2 0 C3.87333116 12.43210681 3.87333116 12.43210681 1.8359375 16.08984375 C0.29493563 17.52077406 -1.318467 18.74096273 -3 20 C-4.00568242 21.66324401 -5.00664799 23.32936253 -6 25 C-8.1875 26.8125 -8.1875 26.8125 -10 28 C-11.32 27.34 -12.64 26.68 -14 26 C-12.68 25.34 -11.36 24.68 -10 24 C-10 23.34 -10 22.68 -10 22 C-9.21625 21.9175 -8.4325 21.835 -7.625 21.75 C-4.90548487 21.27375675 -4.90548487 21.27375675 -3.75 19.1875 C-3.0468045 17.13651313 -2.45423744 15.11977471 -2 13 C-1.34 13 -0.68 13 0 13 C0 8.71 0 4.42 0 0 Z " fill="#D5BC12" transform="translate(219,101)"/>
<path d="M0 0 C0.66 0.33 1.32 0.66 2 1 C-1.49123157 6.31649522 -5.07859439 10.09691973 -10.125 13.9375 C-10.74503906 14.43056641 -11.36507813 14.92363281 -12.00390625 15.43164062 C-16.60664442 19 -16.60664442 19 -20 19 C-20 19.66 -20 20.32 -20 21 C-20.99 20.67 -21.98 20.34 -23 20 C-21.37660195 18.29115995 -19.70680947 16.62553283 -18 15 C-17.34 15 -16.68 15 -16 15 C-16 14.34 -16 13.68 -16 13 C-13.03812728 10.82796 -10.49314009 9.16438003 -7 8 C-7 7.34 -7 6.68 -7 6 C-6.34 6 -5.68 6 -5 6 C-5 5.34 -5 4.68 -5 4 C-4.34 4 -3.68 4 -3 4 C-3 3.34 -3 2.68 -3 2 C-2.01 1.34 -1.02 0.68 0 0 Z " fill="#383807" transform="translate(347,258)"/>
<path d="M0 0 C0.66 0.66 1.32 1.32 2 2 C3.98356483 2.71408334 5.98315437 3.38617742 8 4 C8 4.33 8 4.66 8 5 C-0.25 5 -8.5 5 -17 5 C-17 5.66 -17 6.32 -17 7 C-17.66 7 -18.32 7 -19 7 C-18 4 -18 4 -14.8125 2.375 C-10.02880061 0.50652028 -5.14416741 -0.42868062 0 0 Z " fill="#81A60A" transform="translate(110,227)"/>
<path d="M0 0 C0.6875 1.75 0.6875 1.75 1 4 C-0.4375 6.25 -0.4375 6.25 -2 8 C-2 6.35 -2 4.7 -2 3 C-5.18234105 4.75454385 -5.18234105 4.75454385 -8 7 C-8.23287008 8.68183948 -8.41264166 10.3712416 -8.5625 12.0625 C-8.64628906 12.98160156 -8.73007813 13.90070313 -8.81640625 14.84765625 C-8.87699219 15.55792969 -8.93757812 16.26820313 -9 17 C-9.33 17 -9.66 17 -10 17 C-10.0809723 14.56183415 -10.14046972 12.12635616 -10.1875 9.6875 C-10.21263672 8.99720703 -10.23777344 8.30691406 -10.26367188 7.59570312 C-10.33714192 2.52627031 -10.33714192 2.52627031 -8.71875 0 C-5.82356549 -1.68447099 -3.14389291 -0.65250608 0 0 Z " fill="#E3CA17" transform="translate(250,174)"/>
<path d="M0 0 C0.99 0 1.98 0 3 0 C4.88259397 2.76852055 4.99761714 4.02621145 4.6875 7.4375 C4.460625 8.613125 4.23375 9.78875 4 11 C3.814375 11.969375 3.62875 12.93875 3.4375 13.9375 C3.293125 14.618125 3.14875 15.29875 3 16 C1.35 15.01 -0.3 14.02 -2 13 C-1.34 12.67 -0.68 12.34 0 12 C0 8.04 0 4.08 0 0 Z " fill="#7DAC0B" transform="translate(82,238)"/>
<path d="M0 0 C0.33 0.99 0.66 1.98 1 3 C-0.25 5.4375 -0.25 5.4375 -2 8 C-2.515625 8.763125 -3.03125 9.52625 -3.5625 10.3125 C-4.2740625 11.1478125 -4.2740625 11.1478125 -5 12 C-5.66 12 -6.32 12 -7 12 C-7 12.66 -7 13.32 -7 14 C-7.66 14 -8.32 14 -9 14 C-9 14.66 -9 15.32 -9 16 C-9.66 16 -10.32 16 -11 16 C-11 16.66 -11 17.32 -11 18 C-11.66 18 -12.32 18 -13 18 C-13 18.66 -13 19.32 -13 20 C-14.32 20.33 -15.64 20.66 -17 21 C-17.33 20.01 -17.66 19.02 -18 18 C-17.01 18 -16.02 18 -15 18 C-15 17.34 -15 16.68 -15 16 C-14.319375 15.62875 -13.63875 15.2575 -12.9375 14.875 C-7.35069103 11.30895172 -3.09739131 5.83038365 0 0 Z " fill="#DCBC10" transform="translate(269,132)"/>
<path d="M0 0 C2.5715524 3.85224648 2.26059409 7.86145465 2.1875 12.3125 C2.18685547 13.04662109 2.18621094 13.78074219 2.18554688 14.53710938 C2.14898033 19.11605366 1.74594843 23.48253633 1 28 C0.34 27.67 -0.32 27.34 -1 27 C-1.02892385 22.87501462 -1.04677267 18.75005515 -1.0625 14.625 C-1.07087891 13.449375 -1.07925781 12.27375 -1.08789062 11.0625 C-1.09111328 9.94101563 -1.09433594 8.81953125 -1.09765625 7.6640625 C-1.10289307 6.62717285 -1.10812988 5.5902832 -1.11352539 4.52197266 C-1 2 -1 2 0 0 Z " fill="#D3AF0E" transform="translate(270,212)"/>
<path d="M0 0 C6.15234375 -0.09765625 6.15234375 -0.09765625 8 0 C8.33 0.33 8.66 0.66 9 1 C12.22562564 1.54216024 15.46161415 1.96598652 18.703125 2.40234375 C21.72202191 2.94960824 24.21191149 3.74745648 27 5 C27 5.66 27 6.32 27 7 C24.14188871 7.16812419 22.07091626 7.02419496 19.34375 6.09375 C15.47002833 4.82664478 11.630834 4.08489463 7.625 3.375 C6.88894531 3.2409375 6.15289062 3.106875 5.39453125 2.96875 C3.59705828 2.64193673 1.79862367 2.32041989 0 2 C0 1.34 0 0.68 0 0 Z " fill="#EFE239" transform="translate(206,38)"/>
<path d="M0 0 C2.95898438 2.67138672 2.95898438 2.67138672 3.328125 5.62890625 C3.30234375 6.59699219 3.2765625 7.56507813 3.25 8.5625 C3.23453125 9.53316406 3.2190625 10.50382813 3.203125 11.50390625 C3 14 3 14 2 16 C2.66 16 3.32 16 4 16 C4 17.98 4 19.96 4 22 C3.01 21.67 2.02 21.34 1 21 C0.07811539 18.23434618 -0.11785222 16.61716298 -0.09765625 13.76953125 C-0.09282227 12.56586914 -0.09282227 12.56586914 -0.08789062 11.33789062 C-0.07951172 10.50451172 -0.07113281 9.67113281 -0.0625 8.8125 C-0.05798828 7.96751953 -0.05347656 7.12253906 -0.04882812 6.25195312 C-0.03705403 4.16793845 -0.0191189 2.08396023 0 0 Z " fill="#AFAB0B" transform="translate(239,228)"/>
<path d="M0 0 C0.33 0 0.66 0 1 0 C1.04937279 4.66307014 1.08570627 9.32598873 1.10986328 13.98925781 C1.11993188 15.57619883 1.13358767 17.16312125 1.15087891 18.75 C1.17509001 21.02869247 1.18647422 23.30714006 1.1953125 25.5859375 C1.20563507 26.29744965 1.21595764 27.00896179 1.22659302 27.74203491 C1.22699422 29.49631665 1.12202209 31.24996709 1 33 C-1 35 -1 35 -4.4375 35.3125 C-8 35 -8 35 -9.9375 33.5 C-10.288125 33.005 -10.63875 32.51 -11 32 C-9.68 32 -8.36 32 -7 32 C-7 32.66 -7 33.32 -7 34 C-6.01 34 -5.02 34 -4 34 C-3.67 33.34 -3.34 32.68 -3 32 C-2.34 31.67 -1.68 31.34 -1 31 C-0.67 20.77 -0.34 10.54 0 0 Z " fill="#ACA50D" transform="translate(251,219)"/>
<path d="M0 0 C1.15680267 0.00212242 1.15680267 0.00212242 2.3369751 0.00428772 C4.79239838 0.00987091 7.24772942 0.0224203 9.703125 0.03515625 C11.37109243 0.04017342 13.03906129 0.04473595 14.70703125 0.04882812 C18.78909787 0.05983484 22.87109581 0.07708789 26.953125 0.09765625 C26.623125 0.75765625 26.293125 1.41765625 25.953125 2.09765625 C25.02564453 2.0819458 24.09816406 2.06623535 23.14257812 2.05004883 C19.66856178 1.99861568 16.19495594 1.96115943 12.72070312 1.93286133 C11.22324193 1.91786737 9.72582395 1.8974652 8.22851562 1.87133789 C-3.23914402 1.60169317 -3.23914402 1.60169317 -14.046875 5.09765625 C-14.046875 4.43765625 -14.046875 3.77765625 -14.046875 3.09765625 C-13.386875 3.09765625 -12.726875 3.09765625 -12.046875 3.09765625 C-12.046875 2.43765625 -12.046875 1.77765625 -12.046875 1.09765625 C-8.09573952 -0.20585762 -4.10862757 -0.02846656 0 0 Z " fill="#4A5F06" transform="translate(105.046875,230.90234375)"/>
<path d="M0 0 C0.66 0 1.32 0 2 0 C2 5.61 2 11.22 2 17 C1.01 16.67 0.02 16.34 -1 16 C-1.02685095 13.52076199 -1.04676547 11.0418116 -1.0625 8.5625 C-1.07506836 7.50192383 -1.07506836 7.50192383 -1.08789062 6.41992188 C-1.09653588 4.61306441 -1.05220011 2.80612397 -1 1 C-0.67 0.67 -0.34 0.34 0 0 Z " fill="#A2C00D" transform="translate(185,205)"/>
<path d="M0 0 C0.66 0 1.32 0 2 0 C3.50156874 3.00313748 3.09281204 5.79067522 3.0625 9.125 C3.05347656 10.40632812 3.04445312 11.68765625 3.03515625 13.0078125 C3.02355469 13.99523437 3.01195312 14.98265625 3 16 C2.01 16.33 1.02 16.66 0 17 C0 11.39 0 5.78 0 0 Z " fill="#A1BE0D" transform="translate(194,205)"/>
<path d="M0 0 C0.66 0.33 1.32 0.66 2 1 C1.67 2.65 1.34 4.3 1 6 C0.34 6 -0.32 6 -1 6 C-0.98839844 6.85464844 -0.97679688 7.70929688 -0.96484375 8.58984375 C-0.95582031 9.69457031 -0.94679688 10.79929688 -0.9375 11.9375 C-0.92589844 13.03964844 -0.91429688 14.14179688 -0.90234375 15.27734375 C-1 18 -1 18 -2 19 C-3.99958364 19.04080783 -6.00045254 19.04254356 -8 19 C-8.33 17.68 -8.66 16.36 -9 15 C-7.02 15.99 -7.02 15.99 -5 17 C-4.70996094 15.78763672 -4.70996094 15.78763672 -4.4140625 14.55078125 C-4.02347656 12.94783203 -4.02347656 12.94783203 -3.625 11.3125 C-3.36976562 10.25675781 -3.11453125 9.20101562 -2.8515625 8.11328125 C-2.08094511 5.29593234 -1.14501457 2.68331675 0 0 Z " fill="#3D5206" transform="translate(89,236)"/>
<path d="M0 0 C0.66 0 1.32 0 2 0 C2.144375 1.134375 2.28875 2.26875 2.4375 3.4375 C2.61171478 6.80777201 2.61171478 6.80777201 4 8 C4.04092937 10.33297433 4.04241723 12.66705225 4 15 C2.35 15.33 0.7 15.66 -1 16 C-0.01 13.69 0.98 11.38 2 9 C1.01 8.67 0.02 8.34 -1 8 C-1.125 2.25 -1.125 2.25 0 0 Z " fill="#A2C009" transform="translate(145,176)"/>
<path d="M0 0 C1.984375 1.421875 1.984375 1.421875 4 4 C4.50627389 7.09456173 4.37696402 10.12473175 4.25 13.25 C4.23195312 14.09046875 4.21390625 14.9309375 4.1953125 15.796875 C4.14830798 17.86507395 4.07656724 19.93268441 4 22 C3.34 22 2.68 22 2 22 C1.87625 22.763125 1.7525 23.52625 1.625 24.3125 C1 27 1 27 -1 30 C-1.66 29.67 -2.32 29.34 -3 29 C-2.54625 28.443125 -2.0925 27.88625 -1.625 27.3125 C2.91807281 20.84735792 2.81237995 13.86727644 1.546875 6.28515625 C1.08094668 4.17849463 0.54740312 2.08697441 0 0 Z " fill="#675F09" transform="translate(215,92)"/>
<path d="M0 0 C-0.33 0.99 -0.66 1.98 -1 3 C-1.68707031 3.12117187 -2.37414062 3.24234375 -3.08203125 3.3671875 C-3.98308594 3.53476563 -4.88414062 3.70234375 -5.8125 3.875 C-7.15248047 4.11863281 -7.15248047 4.11863281 -8.51953125 4.3671875 C-11.22727846 4.91188449 -11.22727846 4.91188449 -14 7 C-13.67 4.69 -13.34 2.38 -13 0 C-11.20909747 -0.19466332 -9.41723495 -0.38051213 -7.625 -0.5625 C-6.12839844 -0.71912109 -6.12839844 -0.71912109 -4.6015625 -0.87890625 C-2 -1 -2 -1 0 0 Z " fill="#B4B10E" transform="translate(198,131)"/>
<path d="M0 0 C0 3.10551666 -0.5393715 4.35261084 -2 7 C-2.66 7 -3.32 7 -4 7 C-4 7.66 -4 8.32 -4 9 C-4.66 9 -5.32 9 -6 9 C-6 9.66 -6 10.32 -6 11 C-6.66 11 -7.32 11 -8 11 C-8 11.66 -8 12.32 -8 13 C-9.53125 14.2890625 -9.53125 14.2890625 -11.5 15.625 C-12.1496875 16.07101562 -12.799375 16.51703125 -13.46875 16.9765625 C-13.9740625 17.31429688 -14.479375 17.65203125 -15 18 C-15.66 17.67 -16.32 17.34 -17 17 C-16.27554687 16.35933594 -15.55109375 15.71867187 -14.8046875 15.05859375 C-9.49081364 10.30444793 -4.47960774 5.56924205 0 0 Z " fill="#272705" transform="translate(348,253)"/>
<path d="M0 0 C-2.58010627 2.58010627 -4.29716724 2.97258935 -7.91088867 3.11352539 C-9.0682251 3.10828857 -10.22556152 3.10305176 -11.41796875 3.09765625 C-12.67158203 3.09443359 -13.92519531 3.09121094 -15.21679688 3.08789062 C-16.52712891 3.07951172 -17.83746094 3.07113281 -19.1875 3.0625 C-20.52278481 3.05748317 -21.85807141 3.05292059 -23.19335938 3.04882812 C-26.46228473 3.03702695 -29.73111991 3.02056297 -33 3 C-33 2.67 -33 2.34 -33 2 C-32.31373535 1.97494385 -31.6274707 1.9498877 -30.92041016 1.92407227 C-27.82174183 1.80828573 -24.72339077 1.68548115 -21.625 1.5625 C-20.54476562 1.52318359 -19.46453125 1.48386719 -18.3515625 1.44335938 C-16.8046875 1.38051758 -16.8046875 1.38051758 -15.2265625 1.31640625 C-14.27346191 1.27974854 -13.32036133 1.24309082 -12.33837891 1.20532227 C-7.99280387 0.82375737 -4.61333638 -0.07440865 0 0 Z " fill="#858B09" transform="translate(216,168)"/>
<path d="M0 0 C0.33 0 0.66 0 1 0 C1.48817841 8.01426231 0.98837518 13.94912244 -3 21 C-3.33 19.68 -3.66 18.36 -4 17 C-3.34 17 -2.68 17 -2 17 C-2.02320313 16.19175781 -2.04640625 15.38351563 -2.0703125 14.55078125 C-2.08835937 13.48214844 -2.10640625 12.41351563 -2.125 11.3125 C-2.14820313 10.25675781 -2.17140625 9.20101562 -2.1953125 8.11328125 C-1.99858729 4.97748141 -1.33057654 2.82354627 0 0 Z " fill="#F1CC16" transform="translate(277,107)"/>
<path d="M0 0 C0.66 0 1.32 0 2 0 C1.75 3.375 1.75 3.375 1 7 C-1.0625 8.4375 -1.0625 8.4375 -3 9 C-2.34 9.33 -1.68 9.66 -1 10 C-1 12.31 -1 14.62 -1 17 C-2.32 17.33 -3.64 17.66 -5 18 C-4.67 17.34 -4.34 16.68 -4 16 C-3.34 16 -2.68 16 -2 16 C-2 14.35 -2 12.7 -2 11 C-4.475 10.01 -4.475 10.01 -7 9 C-7 8.34 -7 7.68 -7 7 C-4.69 6.34 -2.38 5.68 0 5 C0 3.35 0 1.7 0 0 Z " fill="#3A4806" transform="translate(149,186)"/>
<path d="M0 0 C0.33 0.99 0.66 1.98 1 3 C0.34 3 -0.32 3 -1 3 C-1 2.34 -1 1.68 -1 1 C-3.50358872 1.48207356 -3.50358872 1.48207356 -6 3 C-7.37967524 6.53514293 -7.37967524 6.53514293 -8 10 C-8.66 10 -9.32 10 -10 10 C-10 7.03 -10 4.06 -10 1 C-6.78548731 -0.60725635 -3.56387464 -0.05748185 0 0 Z " fill="#C9CE0C" transform="translate(221,194)"/>
<path d="M0 0 C0.33 0 0.66 0 1 0 C1.36010591 7.32215357 1.36010591 7.32215357 -0.0625 10 C-3.02087678 11.52690415 -5.73716599 11.18468872 -9 11 C-9.33 10.34 -9.66 9.68 -10 9 C-8.02 9 -6.04 9 -4 9 C-4.33 8.01 -4.66 7.02 -5 6 C-4.34 6 -3.68 6 -3 6 C-0.8614515 3.8614515 -0.57344937 2.86724686 0 0 Z " fill="#7A8E05" transform="translate(223,225)"/>
<path d="M0 0 C0.54140625 0.23332031 1.0828125 0.46664063 1.640625 0.70703125 C0.20902232 1.71545578 -1.22988953 2.71351016 -2.671875 3.70703125 C-3.47238281 4.26390625 -4.27289063 4.82078125 -5.09765625 5.39453125 C-7.359375 6.70703125 -7.359375 6.70703125 -10.359375 6.70703125 C-10.359375 7.36703125 -10.359375 8.02703125 -10.359375 8.70703125 C-12.009375 9.03703125 -13.659375 9.36703125 -15.359375 9.70703125 C-14.699375 9.37703125 -14.039375 9.04703125 -13.359375 8.70703125 C-13.359375 8.04703125 -13.359375 7.38703125 -13.359375 6.70703125 C-11.09375 4.9453125 -11.09375 4.9453125 -8.109375 3.01953125 C-7.13484375 2.37628906 -6.1603125 1.73304687 -5.15625 1.0703125 C-2.359375 -0.29296875 -2.359375 -0.29296875 0 0 Z " fill="#554B11" transform="translate(41.359375,10.29296875)"/>
<path d="M0 0 C2.475 0.495 2.475 0.495 5 1 C5 5.95 5 10.9 5 16 C4.34 16.33 3.68 16.66 3 17 C3 12.05 3 7.1 3 2 C2.01 2 1.02 2 0 2 C0 1.34 0 0.68 0 0 Z " fill="#F7D31E" transform="translate(275,186)"/>
<path d="M0 0 C3.3 0 6.6 0 10 0 C4.67715994 5.32284006 -5.68873241 6.42656725 -13 7 C-12.67 6.34 -12.34 5.68 -12 5 C-9.49609375 4.3671875 -9.49609375 4.3671875 -6.4375 3.875 C-4.91962891 3.62363281 -4.91962891 3.62363281 -3.37109375 3.3671875 C-2.58863281 3.24601563 -1.80617187 3.12484375 -1 3 C-0.67 2.01 -0.34 1.02 0 0 Z " fill="#9F910B" transform="translate(231,161)"/>
<path d="M0 0 C-1.39332574 3.36720387 -2.9789286 4.9859524 -6 7 C-7.32 6.34 -8.64 5.68 -10 5 C-8.68 4.34 -7.36 3.68 -6 3 C-6 2.34 -6 1.68 -6 1 C-4 0 -4 0 0 0 Z " fill="#C5B60E" transform="translate(215,122)"/>
<path d="M0 0 C1.27514492 3.82543475 0.52740413 5.33423008 -1 9 C-2.625 10.875 -2.625 10.875 -4 12 C-4.49230769 4.61538462 -4.49230769 4.61538462 -2 1.5 C-1.34 1.005 -0.68 0.51 0 0 Z " fill="#433B0E" transform="translate(7,42)"/>
<path d="M0 0 C3.32875935 3.64578405 5.0219329 8.21084385 6 13 C5.578125 15.28125 5.578125 15.28125 5 17 C4.67 15.35 4.34 13.7 4 12 C3.34 12 2.68 12 2 12 C1.67 12.99 1.34 13.98 1 15 C1.01740234 14.00419922 1.01740234 14.00419922 1.03515625 12.98828125 C1.11893409 6.43693213 1.11893409 6.43693213 0 0 Z " fill="#2B250B" transform="translate(355,41)"/>
<path d="M0 0 C1.81293089 0.14037521 3.6253443 0.28744889 5.4375 0.4375 C6.95150391 0.55931641 6.95150391 0.55931641 8.49609375 0.68359375 C11 1 11 1 12 2 C13.67884238 2.3931648 15.36850045 2.74085452 17.0625 3.0625 C17.98160156 3.23910156 18.90070313 3.41570313 19.84765625 3.59765625 C20.55792969 3.73042969 21.26820313 3.86320312 22 4 C14.48185098 6.23010263 7.09602048 3.66729848 0 1 C0 0.67 0 0.34 0 0 Z " fill="#959129" transform="translate(206,36)"/>
<path d="M0 0 C0.66 0.99 1.32 1.98 2 3 C-2.95 3 -7.9 3 -13 3 C-9.67974354 -0.32025646 -4.56747544 -0.50749727 0 0 Z " fill="#93BE0D" transform="translate(110,227)"/>
<path d="M0 0 C2.68433048 2.45091043 3.91789741 4.28241384 4.09765625 8.04296875 C4.06510417 10.02864583 4.03255208 12.01432292 4 14 C3.01 14.495 3.01 14.495 2 15 C2 11.7 2 8.4 2 5 C1.34 5 0.68 5 0 5 C0 3.35 0 1.7 0 0 Z " fill="#F6D91A" transform="translate(219,96)"/>
<path d="M0 0 C2.00841268 0.01421885 4.01537247 0.13420475 6.01953125 0.265625 C6.01953125 0.925625 6.01953125 1.585625 6.01953125 2.265625 C4.75345518 2.79791826 3.48142713 3.31607044 2.20703125 3.828125 C1.49933594 4.11816406 0.79164063 4.40820312 0.0625 4.70703125 C-1.98046875 5.265625 -1.98046875 5.265625 -4.98046875 4.265625 C-3.72152968 1.74774686 -2.88459378 0.38688832 0 0 Z " fill="#84A80A" transform="translate(131.98046875,226.734375)"/>
<path d="M0 0 C0.99 0.33 1.98 0.66 3 1 C3 1.66 3 2.32 3 3 C-4.28571429 7.42857143 -4.28571429 7.42857143 -9 8 C-9 7.01 -9 6.02 -9 5 C-7.68 5 -6.36 5 -5 5 C-2.24958334 2.58333229 -2.24958334 2.58333229 0 0 Z " fill="#D1B50D" transform="translate(245,154)"/>
<path d="M0 0 C3.73487777 0.4979837 5.81237635 0.87491756 9 3 C9 3.66 9 4.32 9 5 C9.99 5.33 10.98 5.66 12 6 C11.34 6.66 10.68 7.32 10 8 C7.5 6.625 7.5 6.625 5 5 C5 4.34 5 3.68 5 3 C4.01 3 3.02 3 2 3 C2 2.34 2 1.68 2 1 C1.34 0.67 0.68 0.34 0 0 Z " fill="#41370F" transform="translate(322,12)"/>
<path d="M0 0 C4.875 4.625 4.875 4.625 6 8 C5.67 8.66 5.34 9.32 5 10 C4.34 10 3.68 10 3 10 C0.70366176 6.55549263 0.45983515 4.06187717 0 0 Z " fill="#BFB93D" transform="translate(268,69)"/>
<path d="M0 0 C0.33 0.99 0.66 1.98 1 3 C-0.25 5.4375 -0.25 5.4375 -2 8 C-2.515625 8.763125 -3.03125 9.52625 -3.5625 10.3125 C-4.036875 10.869375 -4.51125 11.42625 -5 12 C-5.66 12 -6.32 12 -7 12 C-5.44298069 7.32894208 -2.91552627 3.91294315 0 0 Z " fill="#E9C612" transform="translate(269,132)"/>
<path d="M0 0 C5.78461538 4.43076923 5.78461538 4.43076923 6.875 7.3125 C6.936875 8.1478125 6.936875 8.1478125 7 9 C6.01 9.495 6.01 9.495 5 10 C4 8 3 6 2 4 C1.01 3.67 0.02 3.34 -1 3 C-0.67 2.01 -0.34 1.02 0 0 Z " fill="#A8C10F" transform="translate(156,155)"/>
<path d="M0 0 C1.52730554 4.93937111 0.0005063 8.83223636 -2.125 13.4375 C-2.41375 13.953125 -2.7025 14.46875 -3 15 C-4.57156655 11.8568669 -3.11705576 9.634536 -2.0625 6.375 C-1.68222656 5.18648438 -1.30195313 3.99796875 -0.91015625 2.7734375 C-0.60980469 1.85820313 -0.30945313 0.94296875 0 0 Z " fill="#8F7E12" transform="translate(279,112)"/>
<path d="M0 0 C6.4 -0.36923077 6.4 -0.36923077 9.4375 1.5 C9.953125 1.995 10.46875 2.49 11 3 C7.44706507 4.14947895 6.20023331 4.0868937 2.6875 2.5625 C1.800625 2.046875 0.91375 1.53125 0 1 C0 0.67 0 0.34 0 0 Z " fill="#453B10" transform="translate(296,2)"/>
<path d="M0 0 C0.99 0.33 1.98 0.66 3 1 C1.125 4.875 1.125 4.875 0 6 C-2.67058851 6.14115161 -5.32432238 6.04247107 -8 6 C-8.33 5.34 -8.66 4.68 -9 4 C-6.36 4.33 -3.72 4.66 -1 5 C-0.67 3.35 -0.34 1.7 0 0 Z " fill="#B8A110" transform="translate(277,238)"/>
<path d="M0 0 C-0.54226981 3.79588866 -2.20127563 5.47211993 -5 8 C-4.74438677 5.6568787 -4.40729228 3.32156597 -4 1 C-2 0 -2 0 0 0 Z " fill="#463D0E" transform="translate(16,30)"/>
<path d="M0 0 C0.99 0.33 1.98 0.66 3 1 C1.9375 2.5 1.9375 2.5 0 4 C-3.6875 4.1875 -3.6875 4.1875 -7 4 C-7.33 3.34 -7.66 2.68 -8 2 C-6.865625 1.855625 -5.73125 1.71125 -4.5625 1.5625 C-1.19222799 1.38828522 -1.19222799 1.38828522 0 0 Z " fill="#3B3707" transform="translate(278,242)"/>
<path d="M0 0 C0.33 0 0.66 0 1 0 C1 3.3 1 6.6 1 10 C0.01 9.67 -0.98 9.34 -2 9 C-1.125 1.125 -1.125 1.125 0 0 Z " fill="#F8D121" transform="translate(277,107)"/>
<path d="M0 0 C0.33 0 0.66 0 1 0 C1.25532751 3.06393013 1.21861333 4.63233212 -0.375 7.3125 C-1.179375 8.1478125 -1.179375 8.1478125 -2 9 C-2.66 9 -3.32 9 -4 9 C-3.35499066 5.51694958 -1.95865224 2.93797836 0 0 Z " fill="#3C3A08" transform="translate(354,246)"/>
<path d="M0 0 C1.9375 0.625 1.9375 0.625 4 2 C4.75 5.125 4.75 5.125 5 8 C2.5 5.6875 2.5 5.6875 0 3 C0 2.01 0 1.02 0 0 Z " fill="#42380F" transform="translate(348,34)"/>
<path d="M0 0 C0.33 0 0.66 0 1 0 C0.67 2.31 0.34 4.62 0 7 C-1.65 7.33 -3.3 7.66 -5 8 C-4.34 6.68 -3.68 5.36 -3 4 C-2.01 4 -1.02 4 0 4 C0 2.68 0 1.36 0 0 Z " fill="#9DB510" transform="translate(163,164)"/>
<path d="M0 0 C2.475 0.495 2.475 0.495 5 1 C5 2.65 5 4.3 5 6 C4.01 6.495 4.01 6.495 3 7 C3 5.35 3 3.7 3 2 C2.01 2 1.02 2 0 2 C0 1.34 0 0.68 0 0 Z " fill="#E9CB22" transform="translate(275,186)"/>
</svg>
